<?xml version="1.0" standalone="no"?>
<!DOCTYPE svg PUBLIC "-//W3C//DTD SVG 20010904//EN"
 "http://www.w3.org/TR/2001/REC-SVG-20010904/DTD/svg10.dtd">
<svg version="1.0" xmlns="http://www.w3.org/2000/svg"
 width="512.000000pt" height="512.000000pt" viewBox="0 0 512.000000 512.000000"
 preserveAspectRatio="xMidYMid meet">

<g transform="translate(0.000000,512.000000) scale(0.100000,-0.100000)"
fill="#000000" stroke="none">
<path d="M2410 4267 c-41 -13 -104 -40 -140 -62 -77 -46 -221 -186 -273 -267
-173 -265 -231 -590 -143 -805 15 -35 26 -76 26 -92 0 -20 -26 -68 -84 -154
-124 -184 -142 -253 -106 -402 l23 -95 -43 -92 c-95 -205 -135 -376 -128 -557
3 -104 7 -123 34 -181 36 -77 75 -117 149 -155 44 -22 58 -36 76 -73 12 -26
35 -65 50 -88 37 -55 70 -127 118 -257 21 -59 50 -124 62 -143 63 -93 226
-151 352 -125 33 7 96 30 138 52 67 33 88 39 142 39 35 0 86 -7 113 -15 27 -8
90 -22 139 -30 124 -20 172 -6 225 67 58 79 87 211 109 491 6 69 15 116 25
132 15 23 20 24 80 18 77 -7 138 17 173 69 33 50 56 194 50 308 -8 137 -86
439 -143 552 -25 48 -18 71 31 106 24 17 54 49 66 73 26 52 35 140 20 195 -21
78 -111 166 -243 236 -68 36 -67 33 -22 138 27 62 29 72 28 220 0 131 -3 167
-22 235 -96 334 -352 615 -611 670 -99 21 -182 18 -271 -8z m212 -74 c56 -38
114 -115 164 -218 42 -87 67 -168 56 -180 -3 -3 -54 -5 -114 -5 -105 0 -108 1
-108 23 0 28 -35 87 -52 87 -7 0 -22 12 -32 27 -18 25 -18 26 -1 39 17 13 17
15 -9 53 -15 21 -55 61 -89 87 -34 26 -66 51 -71 55 -11 10 30 27 109 44 87
19 105 18 147 -12z m259 -99 c27 -20 46 -41 42 -46 -3 -6 -2 -8 4 -5 17 11 80
-59 159 -177 37 -53 40 -63 28 -77 -18 -20 -17 -39 1 -63 8 -11 15 -27 15 -36
0 -9 9 -34 19 -56 11 -21 17 -42 14 -46 -2 -5 1 -8 8 -8 7 0 9 -3 6 -7 -9 -8
22 -43 39 -43 12 0 23 -38 23 -80 0 -8 3 -27 7 -42 6 -27 5 -28 -33 -28 -22 0
-61 -3 -87 -6 -36 -5 -46 -11 -46 -25 0 -11 -3 -19 -7 -20 -73 -5 -163 -10
-328 -19 -110 -6 -219 -13 -242 -16 -38 -5 -43 -3 -43 14 0 11 -8 22 -19 25
-46 12 -388 -27 -512 -58 -25 -6 -26 -5 -33 50 -3 31 -4 60 -1 65 3 5 6 31 6
59 1 28 6 51 11 51 5 0 6 -4 3 -10 -3 -5 0 -7 7 -5 8 3 33 -1 57 -10 45 -15
292 -20 355 -6 35 7 42 26 52 151 l6 88 -33 7 c-53 11 -179 54 -234 80 -27 12
-60 26 -73 30 -23 7 -26 30 -4 30 5 0 14 4 19 9 5 5 2 6 -6 1 -9 -5 -12 -3 -9
6 3 8 11 13 17 11 7 -1 10 2 6 8 -4 6 5 24 19 41 14 17 26 35 26 41 0 6 7 7
16 4 9 -4 13 -2 8 5 -7 12 87 105 117 114 18 6 79 -30 79 -47 0 -4 5 -8 12 -8
11 0 118 -104 118 -115 0 -3 9 -14 20 -25 11 -11 20 -27 20 -35 0 -8 4 -15 9
-15 5 0 13 -15 16 -32 4 -18 14 -46 22 -61 l14 -29 122 7 c67 3 141 8 165 11
l43 5 -3 59 c-2 32 -6 56 -9 55 -5 -4 -31 82 -26 89 1 2 -7 13 -17 25 -11 12
-19 35 -19 52 0 16 -4 25 -8 18 -4 -8 -12 -2 -23 18 -8 17 -31 51 -51 77 l-35
46 61 -30 c33 -17 82 -47 110 -66z m-487 27 c52 -36 136 -116 136 -130 0 -29
-28 -17 -83 36 -34 32 -77 69 -94 82 -18 12 -33 27 -33 32 0 17 32 9 74 -20z
m202 -276 c21 -50 16 -67 -6 -20 -20 43 -23 55 -14 55 3 0 12 -16 20 -35z
m-550 -72 c22 -9 98 -37 169 -62 l130 -46 -10 -75 -10 -75 -70 -9 c-46 -6
-100 -5 -160 2 -88 11 -185 38 -185 50 0 35 77 232 90 232 4 0 25 -8 46 -17z
m1157 -515 c-8 -105 -27 -158 -75 -206 -50 -51 -138 -102 -226 -132 -74 -24
-264 -50 -374 -50 -71 0 -80 2 -111 30 -44 38 -99 141 -100 187 -1 20 -3 30
-6 22 -2 -8 -12 20 -21 61 -10 50 -12 77 -5 82 6 5 4 8 -5 8 -8 0 -10 3 -5 9
6 5 39 12 73 15 l64 7 -4 -54 c-1 -31 1 -53 5 -50 5 3 8 -3 7 -13 -3 -29 -1
-48 5 -42 3 3 20 -8 36 -23 17 -16 38 -29 46 -29 8 0 12 -3 10 -7 -6 -9 74 -8
175 1 167 14 273 17 258 7 -8 -6 -10 -11 -4 -11 6 0 17 6 24 14 6 8 18 12 25
10 7 -3 24 0 37 6 33 18 88 72 88 88 0 7 3 11 8 9 4 -3 5 17 4 44 -5 68 1 79
42 79 l34 0 -5 -62z m-228 -1 c4 -29 5 -66 3 -82 -3 -30 -3 -30 -75 -33 l-73
-3 0 28 c0 15 -3 51 -6 80 l-7 52 64 4 c35 2 69 4 76 5 7 1 14 -19 18 -51z
m105 4 c0 -40 -5 -53 -30 -80 -50 -52 -60 -43 -60 49 l0 80 45 0 45 0 0 -49z
m-272 -43 l-3 -83 -76 -3 -76 -3 -6 53 c-14 109 -14 107 51 111 31 2 70 4 85
5 l28 2 -3 -82z m-180 -25 l-3 -68 -34 -3 c-74 -7 -131 42 -131 114 l0 43 78
3 c53 2 79 -1 85 -9 4 -7 7 -43 5 -80z m-380 72 c-3 -3 2 -42 12 -87 10 -44
16 -87 12 -96 -3 -10 -1 -13 6 -8 11 6 13 2 12 -19 -1 -10 54 -100 84 -139
l30 -38 -45 7 c-75 12 -152 37 -181 58 -41 31 -91 116 -131 224 -30 83 -34 79
72 87 35 3 66 8 69 11 3 3 19 5 35 5 17 0 28 -2 25 -5z m-238 -49 c0 -26 66
-172 100 -221 l33 -48 -43 24 c-63 35 -134 110 -165 174 -28 57 -27 69 10 78
40 10 65 7 65 -7z m-12 -303 c29 -39 40 -63 36 -76 -8 -25 50 -87 75 -80 21 5
48 -22 31 -32 -17 -11 -11 -21 33 -52 40 -30 45 -31 95 -21 29 5 72 8 95 6
l42 -3 28 -84 c33 -102 63 -258 77 -400 12 -119 14 -518 3 -524 -5 -2 -29 -2
-54 1 l-46 4 5 166 c5 186 -8 358 -39 518 -23 122 -66 264 -78 264 -5 0 -47
-18 -94 -41 -107 -51 -156 -54 -198 -13 l-29 29 19 68 c22 77 18 81 -49 47
-72 -37 -74 -34 -66 86 6 89 11 114 32 150 14 24 29 44 32 44 4 -1 26 -26 50
-57z m1405 -53 c56 -50 87 -108 86 -160 -1 -32 -1 -33 -8 -10 -26 83 -90 159
-171 200 -27 14 -40 27 -40 41 0 20 1 20 42 -3 22 -13 64 -43 91 -68z m-258
38 c-11 -67 -20 -78 -66 -78 -22 0 -101 -7 -175 -16 -75 -8 -138 -13 -142 -10
-3 3 6 6 19 6 72 0 284 76 344 124 28 21 28 21 20 -26z m-1078 -10 c9 -7 55
-50 103 -95 99 -95 90 -93 275 -68 61 8 142 20 182 25 40 5 143 14 230 20 240
17 293 25 305 44 5 6 8 1 8 -12 0 -13 -4 -20 -10 -17 -5 3 -10 2 -10 -4 0 -6
-22 -9 -54 -8 -62 2 -60 11 -31 -123 18 -87 57 -345 77 -505 7 -60 13 -208 13
-328 0 -119 3 -217 6 -217 4 0 23 7 43 15 20 8 36 11 36 6 0 -8 -90 -71 -101
-71 -2 0 -3 32 -1 71 l3 72 -55 -6 c-69 -7 -76 -11 -76 -46 0 -24 -5 -28 -42
-37 l-43 -9 -3 -54 -3 -54 86 7 c48 3 85 3 83 -1 -8 -16 -35 -79 -41 -94 -4
-12 -29 -19 -94 -27 -142 -19 -166 -18 -193 6 -14 12 -34 28 -45 37 -11 9 -13
13 -5 9 9 -4 12 -3 7 2 -5 5 -16 9 -24 9 -9 0 -18 5 -20 11 -2 7 12 12 38 12
23 1 73 6 111 13 l68 12 0 59 0 58 -55 0 c-52 0 -55 1 -55 25 0 24 -2 25 -64
25 -36 0 -67 -4 -70 -9 -3 -5 -7 -38 -8 -74 -1 -54 -4 -64 -17 -60 -12 3 -12
2 2 -7 9 -6 17 -17 17 -24 0 -9 -27 -3 -92 22 -89 34 -99 35 -230 36 l-137 1
31 30 c16 16 41 52 56 80 23 45 25 61 25 160 -1 61 -8 166 -17 235 -20 155
-21 313 -3 328 26 22 42 -176 42 -506 l0 -302 30 0 c48 -1 125 -8 188 -18 50
-8 60 -6 65 7 10 22 9 458 -1 561 -11 121 -24 213 -43 305 -9 44 -17 89 -19
100 -1 11 -5 27 -8 35 -13 31 -26 104 -20 114 3 5 1 6 -5 2 -6 -3 -13 3 -17
14 -7 21 -18 24 -75 20 -19 -2 -56 -3 -82 -4 -25 0 -44 -4 -41 -8 6 -11 -69
-10 -85 1 -7 4 -15 20 -16 35 -4 37 -45 78 -72 73 -24 -4 -46 23 -34 43 5 8
-1 21 -19 36 -27 24 -22 34 6 12z m1117 -3 c-4 -8 -8 -15 -10 -15 -2 0 -4 7
-4 15 0 8 4 15 10 15 5 0 7 -7 4 -15z m-7 -47 c-3 -8 -6 -5 -6 6 -1 11 2 17 5
13 3 -3 4 -12 1 -19z m152 9 c6 -8 8 -17 4 -21 -4 -4 -1 -4 8 -1 9 3 27 -7 46
-28 41 -46 60 -83 68 -137 6 -41 4 -47 -23 -74 -17 -15 -34 -26 -39 -23 -5 3
-15 29 -23 57 -8 28 -18 53 -22 56 -4 3 -8 14 -8 25 0 11 -6 32 -14 47 -18 35
-30 112 -18 112 5 0 15 -6 21 -13z m-1447 -205 c9 -2 35 6 57 18 47 23 51 16
26 -45 -20 -45 -13 -68 30 -101 52 -40 143 -32 241 22 22 13 45 19 51 16 9 -6
33 -73 33 -94 0 -13 -17 -9 -18 5 0 6 -3 21 -6 32 -2 11 -5 23 -5 28 -2 15
-28 6 -69 -24 -24 -18 -49 -28 -58 -25 -8 3 -12 2 -9 -4 9 -15 -107 -12 -144
3 -17 7 -28 17 -24 22 5 4 2 5 -4 1 -23 -13 -51 26 -51 73 -1 24 -3 45 -6 48
-3 3 -19 0 -36 -5 -28 -10 -32 -9 -40 14 -12 30 -13 138 -2 185 5 26 8 10 12
-66 4 -83 8 -100 22 -103z m428 165 c41 -9 127 -19 190 -23 l115 -8 -170 -18
-170 -18 -45 46 c-40 41 -42 46 -20 41 14 -3 59 -12 100 -20z m929 -144 c46
-303 59 -524 42 -747 -13 -167 -18 -196 -36 -196 -9 0 -14 51 -18 198 -4 108
-14 258 -22 332 -16 144 -53 379 -61 392 -3 4 7 3 23 -3 24 -9 30 -7 46 12 15
19 16 25 4 43 -19 28 -44 32 -68 10 -18 -16 -19 -16 -19 4 0 12 0 25 0 30 -1
4 14 9 32 12 25 4 34 11 36 28 8 51 21 14 41 -115z m-1396 -61 c6 -8 20 -11
42 -6 l33 6 -8 -38 c-6 -27 -5 -43 6 -59 20 -31 81 -62 139 -71 l50 -7 -50
-13 c-70 -19 -105 -17 -144 7 -98 60 -133 173 -99 321 l13 53 5 -90 c3 -49 9
-96 13 -103z m1270 71 c53 -235 82 -486 93 -795 l7 -198 24 7 c23 5 24 4 14
-15 -8 -15 -56 -42 -75 -42 -1 0 0 71 2 157 5 215 -16 437 -73 775 -28 164
-29 178 -16 178 5 0 16 -30 24 -67z m-1336 -35 c1 -41 8 -92 17 -117 9 -24 13
-48 9 -54 -3 -6 -1 -7 5 -3 7 4 12 3 12 -2 0 -13 58 -72 71 -72 5 0 8 -4 5 -8
-2 -4 3 -9 12 -9 9 -1 35 -4 57 -7 22 -2 58 0 80 5 22 6 47 11 55 12 8 1 20 5
25 10 17 12 135 87 139 87 2 0 6 -13 8 -29 4 -28 3 -28 -17 -15 -20 13 -25 12
-56 -11 -65 -48 -121 -69 -193 -72 -73 -3 -150 12 -141 27 3 6 0 7 -8 4 -20
-7 -52 24 -81 80 -20 38 -26 64 -26 116 0 55 14 130 24 130 2 0 3 -33 3 -72z
m1423 37 c0 -8 -7 -15 -15 -15 -8 0 -15 7 -15 15 0 8 7 15 15 15 8 0 15 -7 15
-15z m-735 -37 c5 -18 9 -37 10 -43 1 -5 5 -17 8 -25 3 -8 8 -28 10 -45 5 -29
9 -50 27 -127 4 -22 4 -38 -1 -38 -5 0 -9 10 -9 23 0 12 -14 69 -30 127 -37
127 -43 160 -31 160 4 0 12 -15 16 -32z m-135 -220 c0 -13 7 -48 15 -78 29
-109 48 -353 42 -541 l-6 -176 76 -7 c45 -4 80 -3 86 3 13 13 12 435 -2 541
-6 46 -11 100 -10 120 1 19 8 -10 16 -65 10 -66 15 -191 16 -365 l2 -265 -40
2 c-22 0 -70 3 -106 5 l-66 3 5 200 c5 207 -9 435 -34 558 -17 81 -17 87 -4
87 6 0 10 -10 10 -22z m197 -90 c-3 -8 -6 -5 -6 6 -1 11 2 17 5 13 3 -3 4 -12
1 -19z m873 -60 c5 -17 5 -30 -2 -34 -16 -10 -28 17 -27 66 0 41 1 43 11 20 5
-14 14 -37 18 -52z m-1455 -5 c73 -5 163 5 208 22 14 6 17 1 17 -29 0 -45 -17
-51 -160 -50 -87 1 -264 25 -277 38 -2 2 4 20 13 39 l17 36 51 -26 c37 -19 71
-27 131 -30z m-85 -73 c52 -5 141 -9 197 -10 l102 0 5 -32 c12 -76 12 -98 2
-98 -6 0 -4 -4 4 -10 13 -8 13 -10 0 -14 -42 -14 -237 -37 -283 -33 -82 7
-150 16 -177 24 -14 3 -28 7 -32 7 -22 3 -18 38 11 111 5 11 14 33 20 49 9 23
16 27 34 21 12 -4 65 -11 117 -15z m1570 7 c0 -18 -47 -40 -56 -26 -8 14 15
39 37 39 11 0 19 -6 19 -13z m24 -99 c28 -100 36 -133 36 -150 0 -18 -98 -83
-109 -73 -3 4 -5 61 -3 128 3 98 7 124 20 135 29 22 41 13 56 -40z m-1564
-123 c74 0 172 3 217 8 l82 7 6 -57 c3 -32 8 -70 10 -85 4 -25 2 -28 -25 -28
-32 0 -43 -11 -44 -48 -1 -20 -8 -27 -31 -34 -99 -26 -299 -36 -428 -22 l-58
7 37 30 c63 53 83 141 45 204 l-20 32 37 -7 c20 -4 98 -7 172 -7z m-200 -97
c0 -40 -5 -52 -37 -85 -37 -37 -37 -38 -41 -14 -4 26 16 180 26 195 3 5 16 -4
29 -20 17 -21 23 -42 23 -76z m1810 12 c0 -15 -37 -45 -91 -75 -73 -39 -61 -7
16 44 64 42 75 47 75 31z m5 -60 c3 -5 -1 -10 -10 -10 -9 0 -13 5 -10 10 3 6
8 10 10 10 2 0 7 -4 10 -10z m-44 -28 c-7 -13 -4 -37 10 -81 22 -72 18 -104
-19 -143 -27 -29 -76 -37 -111 -19 -16 9 -17 16 -8 63 22 120 25 125 80 162
61 42 61 42 48 18z m-1331 -96 c0 -2 -7 -7 -16 -10 -8 -3 -12 -2 -9 4 6 10 25
14 25 6z m-75 -21 c-43 -15 -82 -19 -72 -8 7 6 72 21 97 21 8 0 -3 -6 -25 -13z
m-385 -5 c0 -3 26 -4 57 -3 239 7 275 5 219 -17 -33 -12 -217 -13 -270 -1 -48
12 -72 32 -33 29 15 -1 27 -5 27 -8z m437 -82 c-49 -104 -120 -151 -228 -150
-106 0 -185 46 -229 132 -11 22 -20 43 -20 48 0 6 22 5 53 -1 67 -12 248 -2
357 21 47 10 86 14 88 10 2 -4 -8 -31 -21 -60z m1113 -61 c0 -7 -18 -32 -39
-55 -21 -23 -49 -66 -61 -96 -25 -60 -22 -58 -140 -75 -164 -24 -205 -29 -212
-23 -4 4 4 8 19 9 38 2 255 44 281 54 13 5 22 17 22 29 0 35 37 96 82 134 49
41 48 40 48 23z m-760 -73 c69 -14 194 -67 207 -87 3 -4 -17 3 -43 16 -77 39
-190 66 -314 75 l-115 9 95 2 c53 0 128 -6 170 -15z m723 -41 c-51 -123 -139
-239 -175 -230 -10 3 -15 1 -12 -4 3 -5 -3 -12 -13 -15 -10 -3 -47 -18 -83
-33 l-66 -28 -28 38 c-15 22 -24 44 -21 49 4 6 2 9 -3 8 -5 -2 -33 24 -63 57
-48 54 -36 53 18 -2 12 -12 30 -21 40 -19 45 9 300 58 320 62 15 3 26 18 38
53 14 43 49 101 60 101 2 0 -3 -17 -12 -37z m-786 2 c88 -14 120 -29 90 -41
-10 -3 -23 -1 -31 5 -8 7 -60 11 -132 11 -65 0 -132 1 -149 2 -16 1 -47 2 -67
2 -53 0 -38 8 40 22 92 15 148 15 249 -1z m31 -56 c38 -13 42 -28 42 -162 0
-153 -32 -207 -121 -207 -77 0 -111 61 -117 207 -2 57 -1 119 2 138 l7 35 78
0 c43 0 92 -5 109 -11z m-222 -86 c-5 -55 -3 -109 5 -143 6 -30 11 -63 11 -72
-1 -10 3 -18 8 -18 5 0 12 -9 15 -20 3 -11 12 -20 19 -20 8 0 19 -7 27 -16 9
-12 27 -15 68 -12 48 2 61 7 87 35 38 39 58 129 50 226 -4 42 -3 54 3 37 16
-45 13 -189 -5 -226 -9 -19 -21 -34 -26 -34 -5 0 -7 -4 -4 -9 4 -5 -15 -19
-40 -31 -49 -24 -119 -23 -139 2 -5 7 -16 13 -24 13 -7 0 -28 25 -45 55 -30
53 -31 60 -31 170 0 108 6 150 21 150 3 0 3 -39 0 -87z m509 57 c10 -11 16
-20 13 -20 -3 0 -13 9 -23 20 -10 11 -16 20 -13 20 3 0 13 -9 23 -20z m449
-167 c-3 -27 -10 -72 -15 -100 -10 -52 -11 -53 -73 -82 -68 -33 -164 -61 -207
-61 -20 0 -34 9 -50 31 -22 31 -22 32 -4 45 11 8 55 28 99 44 122 46 146 60
201 116 27 29 51 52 52 53 2 1 0 -20 -3 -46z m-44 -218 c0 -3 -10 -26 -21 -50
-27 -57 -52 -75 -104 -75 -39 0 -106 27 -112 46 -2 5 32 17 74 27 43 10 94 26
113 36 38 20 50 24 50 16z"/>
<path d="M2810 4120 c0 -5 5 -10 11 -10 5 0 7 5 4 10 -3 6 -8 10 -11 10 -2 0
-4 -4 -4 -10z"/>
<path d="M2527 3706 c-15 -14 -27 -27 -27 -30 0 -2 -18 -24 -40 -48 l-41 -43
3 -80 3 -80 108 3 c59 2 126 6 150 10 l42 8 -2 71 c-1 73 -10 119 -20 109 -3
-3 -27 12 -52 33 -25 21 -58 45 -72 55 -25 16 -27 15 -52 -8z m96 -93 c53 -44
57 -49 57 -90 l0 -43 -37 0 c-21 0 -62 -3 -90 -6 l-53 -7 0 69 c0 60 3 71 27
96 15 15 29 28 32 28 3 0 32 -21 64 -47z m-140 -95 c2 -27 1 -48 -4 -48 -5 0
-9 26 -8 58 1 64 5 60 12 -10z"/>
<path d="M2870 3670 c-29 -27 -56 -47 -59 -45 -9 5 -14 -131 -6 -156 7 -21 10
-22 138 -15 72 4 135 10 140 13 9 6 2 119 -9 148 -4 8 -33 31 -65 51 -32 20
-59 41 -59 45 0 21 -30 6 -80 -41z m139 -59 c16 -13 25 -31 28 -64 l6 -47 -81
0 -80 0 -7 46 c-6 43 -4 49 26 80 31 32 33 33 59 18 14 -9 37 -24 49 -33z
m-147 -71 c4 -44 -8 -54 -18 -15 -6 23 0 55 10 55 2 0 6 -18 8 -40z"/>
<path d="M2822 3654 c-7 -8 -8 -14 -3 -14 10 0 25 19 20 25 -2 1 -10 -3 -17
-11z"/>
<path d="M2124 3686 c-8 -32 2 -46 31 -46 29 0 39 14 31 46 -5 17 -13 24 -31
24 -18 0 -26 -7 -31 -24z m46 -10 c0 -11 -19 -15 -25 -6 -3 5 1 10 9 10 9 0
16 -2 16 -4z"/>
<path d="M2100 3585 c-26 -31 13 -82 44 -56 22 18 20 48 -3 61 -25 13 -26 13
-41 -5z m35 -25 c3 -5 -1 -10 -10 -10 -9 0 -13 5 -10 10 3 6 8 10 10 10 2 0 7
-4 10 -10z"/>
<path d="M3115 3140 c3 -5 8 -10 11 -10 2 0 4 5 4 10 0 6 -5 10 -11 10 -5 0
-7 -4 -4 -10z"/>
<path d="M3078 3093 c7 -3 16 -2 19 1 4 3 -2 6 -13 5 -11 0 -14 -3 -6 -6z"/>
<path d="M2251 3063 c7 -12 15 -20 18 -17 3 2 -3 12 -13 22 -17 16 -18 16 -5
-5z"/>
<path d="M2334 2626 c-3 -8 -4 -25 -2 -38 2 -19 9 -23 38 -23 33 0 35 2 35 35
0 32 -3 35 -33 38 -21 2 -34 -2 -38 -12z m46 -21 c0 -8 -4 -15 -9 -15 -13 0
-22 16 -14 24 11 11 23 6 23 -9z"/>
<path d="M2950 2759 c-25 -5 -67 -12 -95 -17 -50 -7 -50 -7 -47 -42 5 -45 19
-61 48 -55 79 16 70 25 89 -83 9 -53 20 -101 24 -105 8 -8 87 6 98 17 4 3 -5
70 -18 148 -27 157 -24 152 -99 137z"/>
<path d="M2665 2723 c-55 -7 -107 -12 -115 -12 -37 3 -38 0 -24 -47 7 -25 21
-80 29 -122 9 -42 20 -94 26 -114 l10 -38 47 7 c53 7 56 -2 3 -10 -46 -8 -51
-15 -41 -67 11 -59 30 -245 30 -292 0 -25 6 -40 18 -47 16 -10 16 -10 -1 -11
-16 0 -17 -11 -14 -143 2 -79 7 -149 11 -155 6 -11 109 -8 127 4 5 3 9 20 9
39 0 31 4 35 38 44 20 6 45 11 55 11 14 0 17 10 17 60 l0 60 -54 0 c-40 0 -55
4 -60 16 -3 9 -4 20 -1 25 3 5 1 17 -5 28 -8 16 -18 19 -55 15 -28 -3 -45 -1
-45 5 0 6 17 10 38 9 59 -2 65 6 59 72 -6 50 -4 57 11 57 22 -1 74 13 87 24 6
4 8 31 6 59 l-3 52 -60 -4 c-38 -3 -61 0 -63 6 -2 6 -7 41 -10 79 -6 60 -9 67
-28 68 -17 1 -18 2 -4 6 22 6 21 30 -3 118 -11 39 -20 75 -20 82 0 7 26 17 61
24 60 12 61 12 55 42 -3 16 -6 35 -6 42 0 21 -20 22 -125 8z"/>
<path d="M3017 2438 l-47 -10 6 -78 7 -78 -47 -7 c-45 -7 -46 -8 -46 -44 0
-72 7 -81 55 -74 48 6 47 7 57 -87 3 -20 9 -26 37 -28 19 -2 45 -1 59 3 l25 6
-7 112 c-10 150 -29 290 -41 292 -6 2 -31 -2 -58 -7z"/>
<path d="M3045 2001 c-27 -5 -31 -11 -35 -51 -5 -44 -6 -45 -45 -50 l-40 -5 0
-55 0 -55 43 3 42 2 0 -40 0 -40 49 0 c83 0 81 -3 81 125 0 62 -3 127 -6 144
-7 33 -21 37 -89 22z"/>
</g>
</svg>
